<mxfile host="app.diagrams.net" modified="2025-06-06T09:00:00.000Z" agent="5.0" etag="drawio-diagram" version="24.2.5" type="device">
  <diagram name="AWS Architecture" id="aws-architecture">
    <mxGraphModel dx="1422" dy="794" grid="1" gridSize="10" guides="1" tooltips="1" connect="1" arrows="1" fold="1" page="1" pageScale="1" pageWidth="827" pageHeight="1169" math="0" shadow="0">
      <root>
        <mxCell id="0" />
        <mxCell id="1" parent="0" />
        
        <!-- User -->
        <mxCell id="user" value="" style="sketch=0;outlineConnect=0;fontColor=#232F3E;gradientColor=none;fillColor=#232F3D;strokeColor=none;dashed=0;verticalLabelPosition=bottom;verticalAlign=top;align=center;html=1;fontSize=12;fontStyle=0;aspect=fixed;pointerEvents=1;shape=mxgraph.aws4.user;" vertex="1" parent="1">
          <mxGeometry x="100" y="100" width="78" height="78" as="geometry" />
        </mxCell>
        <mxCell id="user-label" value="User" style="text;html=1;strokeColor=none;fillColor=none;align=center;verticalAlign=middle;whiteSpace=wrap;rounded=0;fontSize=14;fontStyle=1;" vertex="1" parent="1">
          <mxGeometry x="109" y="190" width="60" height="30" as="geometry" />
        </mxCell>
        
        <!-- Desktop/Browser -->
        <mxCell id="desktop" value="" style="sketch=0;outlineConnect=0;fontColor=#232F3E;gradientColor=none;fillColor=#232F3D;strokeColor=none;dashed=0;verticalLabelPosition=bottom;verticalAlign=top;align=center;html=1;fontSize=12;fontStyle=0;aspect=fixed;pointerEvents=1;shape=mxgraph.aws4.client;" vertex="1" parent="1">
          <mxGeometry x="300" y="100" width="78" height="78" as="geometry" />
        </mxCell>
        <mxCell id="desktop-label" value="Desktop with Browser" style="text;html=1;strokeColor=none;fillColor=none;align=center;verticalAlign=middle;whiteSpace=wrap;rounded=0;fontSize=14;fontStyle=1;" vertex="1" parent="1">
          <mxGeometry x="279" y="190" width="120" height="30" as="geometry" />
        </mxCell>
        
        <!-- API Gateway -->
        <mxCell id="apigateway" value="" style="sketch=0;points=[[0,0,0],[0.25,0,0],[0.5,0,0],[0.75,0,0],[1,0,0],[0,1,0],[0.25,1,0],[0.5,1,0],[0.75,1,0],[1,1,0],[0,0.25,0],[0,0.5,0],[0,0.75,0],[1,0.25,0],[1,0.5,0],[1,0.75,0]];outlineConnect=0;fontColor=#232F3E;fillColor=#E7157B;strokeColor=#ffffff;dashed=0;verticalLabelPosition=bottom;verticalAlign=top;align=center;html=1;fontSize=12;fontStyle=0;aspect=fixed;shape=mxgraph.aws4.api_gateway;" vertex="1" parent="1">
          <mxGeometry x="500" y="100" width="78" height="78" as="geometry" />
        </mxCell>
        <mxCell id="apigateway-label" value="Amazon API Gateway" style="text;html=1;strokeColor=none;fillColor=none;align=center;verticalAlign=middle;whiteSpace=wrap;rounded=0;fontSize=14;fontStyle=1;" vertex="1" parent="1">
          <mxGeometry x="459" y="190" width="160" height="30" as="geometry" />
        </mxCell>
        
        <!-- Lambda -->
        <mxCell id="lambda" value="" style="sketch=0;points=[[0,0,0],[0.25,0,0],[0.5,0,0],[0.75,0,0],[1,0,0],[0,1,0],[0.25,1,0],[0.5,1,0],[0.75,1,0],[1,1,0],[0,0.25,0],[0,0.5,0],[0,0.75,0],[1,0.25,0],[1,0.5,0],[1,0.75,0]];outlineConnect=0;fontColor=#232F3E;fillColor=#ED7100;strokeColor=#ffffff;dashed=0;verticalLabelPosition=bottom;verticalAlign=top;align=center;html=1;fontSize=12;fontStyle=0;aspect=fixed;shape=mxgraph.aws4.lambda;" vertex="1" parent="1">
          <mxGeometry x="700" y="100" width="78" height="78" as="geometry" />
        </mxCell>
        <mxCell id="lambda-label" value="AWS Lambda&#xa;Landing Page" style="text;html=1;strokeColor=none;fillColor=none;align=center;verticalAlign=middle;whiteSpace=wrap;rounded=0;fontSize=14;fontStyle=1;" vertex="1" parent="1">
          <mxGeometry x="679" y="190" width="120" height="40" as="geometry" />
        </mxCell>
        
        <!-- Connections -->
        <mxCell id="connection1" value="" style="endArrow=classic;html=1;rounded=0;strokeWidth=2;strokeColor=#232F3E;" edge="1" parent="1" source="user" target="desktop">
          <mxGeometry width="50" height="50" relative="1" as="geometry">
            <mxPoint x="200" y="139" as="sourcePoint" />
            <mxPoint x="280" y="139" as="targetPoint" />
          </mxGeometry>
        </mxCell>
        
        <mxCell id="connection2" value="" style="endArrow=classic;html=1;rounded=0;strokeWidth=2;strokeColor=#232F3E;" edge="1" parent="1" source="desktop" target="apigateway">
          <mxGeometry width="50" height="50" relative="1" as="geometry">
            <mxPoint x="400" y="139" as="sourcePoint" />
            <mxPoint x="480" y="139" as="targetPoint" />
          </mxGeometry>
        </mxCell>
        
        <mxCell id="connection3" value="" style="endArrow=classic;html=1;rounded=0;strokeWidth=2;strokeColor=#232F3E;" edge="1" parent="1" source="apigateway" target="lambda">
          <mxGeometry width="50" height="50" relative="1" as="geometry">
            <mxPoint x="600" y="139" as="sourcePoint" />
            <mxPoint x="680" y="139" as="targetPoint" />
          </mxGeometry>
        </mxCell>
        
        <!-- Title -->
        <mxCell id="title" value="Serverless Web Application Architecture" style="text;html=1;strokeColor=none;fillColor=none;align=center;verticalAlign=middle;whiteSpace=wrap;rounded=0;fontSize=18;fontStyle=1;fontColor=#232F3E;" vertex="1" parent="1">
          <mxGeometry x="300" y="30" width="300" height="30" as="geometry" />
        </mxCell>
        
        <!-- AWS Cloud boundary -->
        <mxCell id="aws-cloud" value="" style="sketch=0;outlineConnect=0;gradientColor=none;html=1;whiteSpace=wrap;fontSize=12;fontStyle=0;shape=mxgraph.aws4.group;grIcon=mxgraph.aws4.group_aws_cloud;strokeColor=#AAB7B8;fillColor=none;verticalAlign=top;align=left;spacingLeft=30;fontColor=#AAB7B8;dashed=0;" vertex="1" parent="1">
          <mxGeometry x="450" y="70" width="380" height="180" as="geometry" />
        </mxCell>
        
      </root>
    </mxGraphModel>
  </diagram>
</mxfile>
